# This file uses centimeters as units for non-parametric coordinates.

mtllib lighting.mtl
g default
v 0.147711 2.758065 0.634927
v 0.058652 2.768811 0.649672
v -0.000040 2.761691 0.580614
v 0.030328 2.743825 0.496810
v 0.119387 2.733079 0.482065
v 0.178079 2.740199 0.551123
v 0.206403 2.765184 0.703985
v 0.028285 2.786677 0.733476
v -0.089099 2.772437 0.595360
v -0.028364 2.736705 0.427752
v 0.149755 2.715213 0.398261
v 0.267138 2.729452 0.536377
v 0.265095 2.772304 0.773043
v -0.002083 2.804543 0.817280
v -0.178158 2.783184 0.610105
v -0.087056 2.729586 0.358694
v 0.180122 2.697347 0.314457
v 0.356197 2.718706 0.521632
v 0.323787 2.779424 0.842102
v -0.032450 2.822409 0.901084
v -0.267218 2.793930 0.624851
v -0.145748 2.722466 0.289635
v 0.210489 2.679481 0.230653
v 0.445257 2.707960 0.506886
v 0.382478 2.786544 0.911160
v -0.062818 2.840275 0.984888
v -0.356277 2.804676 0.639596
v -0.204439 2.715346 0.220577
v 0.240857 2.661615 0.146849
v 0.534316 2.697214 0.492141
v 0.441170 2.793663 0.980218
v -0.093185 2.858141 1.068692
v -0.445336 2.815423 0.654342
v -0.263131 2.708226 0.151519
v 0.271224 2.643749 0.063045
v 0.623375 2.686467 0.477395
v 0.499862 2.800783 1.049276
v -0.123553 2.876007 1.152495
v -0.534395 2.826169 0.669087
v -0.321823 2.701107 0.082460
v 0.301592 2.625883 -0.020758
v 0.712434 2.675721 0.462650
v 0.558554 2.807903 1.118335
v -0.153920 2.893873 1.236299
v -0.623454 2.836915 0.683833
v -0.380515 2.693987 0.013402
v 0.331959 2.608017 -0.104562
v 0.801494 2.664975 0.447904
v 0.617246 2.815023 1.187393
v -0.184288 2.911739 1.320103
v -0.712514 2.847661 0.698578
v -0.439206 2.686867 -0.055656
v 0.362327 2.590151 -0.188366
v 0.890553 2.654228 0.433159
v 0.675937 2.822142 1.256451
v -0.214655 2.929605 1.403907
v -0.801573 2.858408 0.713324
v -0.497898 2.679747 -0.124715
v 0.392694 2.572285 -0.272170
v 0.979612 2.643482 0.418413
v 0.734629 2.829262 1.325510
v -0.245023 2.947471 1.487711
v -0.890632 2.869154 0.728070
v -0.556590 2.672628 -0.193773
v 0.423062 2.554419 -0.355974
v 1.068671 2.632736 0.403668
v 0.679719 1.992387 0.555845
v -0.234622 2.102716 0.707232
v -0.837191 2.029619 -0.001766
v -0.525418 1.846195 -0.862152
v 0.388923 1.735866 -1.013540
v 0.991492 1.808963 -0.304541
v 0.624809 1.856469 0.528764
v -0.224222 1.958917 0.669338
v -0.783750 1.891042 0.010983
v -0.494247 1.720719 -0.787947
v 0.354785 1.618271 -0.928521
v 0.914313 1.686146 -0.270165
v 0.569900 1.720551 0.501684
v -0.213822 1.815118 0.631445
v -0.730310 1.752464 0.023731
v -0.463076 1.595243 -0.713742
v 0.320646 1.500676 -0.843503
v 0.837133 1.563330 -0.235790
v 0.514990 1.584633 0.474603
v -0.203422 1.671319 0.593551
v -0.676869 1.613887 0.036480
v -0.431904 1.469767 -0.639537
v 0.286507 1.383081 -0.758485
v 0.759954 1.440513 -0.201414
v 0.460080 1.448714 0.447523
v -0.193022 1.527520 0.555657
v -0.623428 1.475309 0.049229
v -0.400733 1.344291 -0.303509
v 0.252368 1.265485 -0.411643
v 0.682775 1.317697 0.094784
v 0.405170 1.312796 0.682265
v -0.182621 1.383722 0.779586
v -0.569987 1.336731 0.323801
v -0.369562 1.218815 -0.229304
v 0.218229 1.147890 -0.326625
v 0.605595 1.194880 0.129160
v 0.350260 1.176878 0.655185
v -0.172221 1.239923 0.741692
v -0.516546 1.198154 0.336550
v -0.338390 1.093340 -0.155099
v 0.184091 1.030295 -0.241607
v 0.528416 1.072064 0.163535
v 0.295350 1.040960 0.628104
v -0.161821 1.096124 0.703798
v -0.463105 1.059576 0.349299
v -0.307219 0.967864 -0.080895
v 0.149952 0.912699 -0.156589
v 0.451236 0.949247 0.197911
v 0.240440 0.905041 0.601023
v -0.151421 0.952325 0.665904
v -0.409665 0.920998 0.362047
v -0.276048 0.842388 -0.006690
v 0.115813 0.795104 -0.071570
v 0.374057 0.826431 0.232286
v 0.185530 0.769123 0.573943
v -0.141021 0.808526 0.628010
v -0.356224 0.782420 0.374796
v -0.244876 0.716912 -0.194308
v 0.081674 0.677509 0.013448
v 0.296877 0.703614 0.266662
v 0.130620 0.633205 0.285038
v -0.130621 0.664727 0.328292
v -0.302783 0.643843 0.125721
v -0.213705 0.591436 -0.120104
v 0.047535 0.559913 -0.163357
v 0.219698 0.580798 0.039214
v 0.075710 0.497287 0.257958
v -0.120220 0.520929 0.290398
v -0.249342 0.505265 0.138470
v -0.182534 0.465960 -0.045899
v 0.013397 0.442318 -0.078339
v 0.142519 0.457981 0.073589
v 0.020800 0.361369 0.230877
v -0.109820 0.377130 0.252504
v -0.195901 0.366687 0.151219
v -0.151362 0.340484 0.028306
v -0.020742 0.324723 0.006679
v 0.065339 0.335165 0.107965
v -0.034110 0.225450 0.203797
v -0.099420 0.233331 0.214610
v -0.142461 0.228110 0.163967
v -0.120191 0.215008 0.102511
v -0.054881 0.207127 0.091698
v -0.011840 0.212349 0.142340
v 0.089020 2.750945 0.565868
v -0.089020 0.089532 0.176716
vt 0.511364 0.230318
vt 0.488636 0.230318
vt 0.477273 0.250000
vt 0.488636 0.269682
vt 0.511364 0.269682
vt 0.522727 0.250000
vt 0.522727 0.210635
vt 0.477273 0.210635
vt 0.454545 0.250000
vt 0.477273 0.289365
vt 0.522727 0.289365
vt 0.545455 0.250000
vt 0.534091 0.190953
vt 0.465909 0.190953
vt 0.431818 0.250000
vt 0.465909 0.309047
vt 0.534091 0.309047
vt 0.568182 0.250000
vt 0.545455 0.171270
vt 0.454545 0.171270
vt 0.409091 0.250000
vt 0.454545 0.328730
vt 0.545455 0.328730
vt 0.590909 0.250000
vt 0.556818 0.151588
vt 0.443182 0.151588
vt 0.386364 0.250000
vt 0.443182 0.348412
vt 0.556818 0.348412
vt 0.613636 0.250000
vt 0.568182 0.131906
vt 0.431818 0.131906
vt 0.363636 0.250000
vt 0.431818 0.368094
vt 0.568182 0.368094
vt 0.636364 0.250000
vt 0.579545 0.112223
vt 0.420455 0.112223
vt 0.340909 0.250000
vt 0.420455 0.387777
vt 0.579545 0.387777
vt 0.659091 0.250000
vt 0.590909 0.092541
vt 0.409091 0.092541
vt 0.318182 0.250000
vt 0.409091 0.407459
vt 0.590909 0.407459
vt 0.681818 0.250000
vt 0.602273 0.072858
vt 0.397727 0.072858
vt 0.295455 0.250000
vt 0.397727 0.427142
vt 0.602273 0.427142
vt 0.704545 0.250000
vt 0.613636 0.053176
vt 0.386364 0.053176
vt 0.272727 0.250000
vt 0.386364 0.446824
vt 0.613636 0.446824
vt 0.727273 0.250000
vt 0.625000 0.033494
vt 0.375000 0.033494
vt 0.250000 0.250000
vt 0.375000 0.466506
vt 0.625000 0.466506
vt 0.750000 0.250000
vt 0.250000 0.500000
vt 0.333333 0.500000
vt 0.416667 0.500000
vt 0.500000 0.500000
vt 0.583333 0.500000
vt 0.666667 0.500000
vt 0.750000 0.500000
vt 0.266667 0.533333
vt 0.344444 0.533333
vt 0.422222 0.533333
vt 0.500000 0.533333
vt 0.577778 0.533333
vt 0.655556 0.533333
vt 0.733333 0.533333
vt 0.283333 0.566667
vt 0.355556 0.566667
vt 0.427778 0.566667
vt 0.500000 0.566667
vt 0.572222 0.566667
vt 0.644445 0.566667
vt 0.716667 0.566667
vt 0.300000 0.600000
vt 0.366667 0.600000
vt 0.433333 0.600000
vt 0.500000 0.600000
vt 0.566667 0.600000
vt 0.633333 0.600000
vt 0.700000 0.600000
vt 0.316667 0.633333
vt 0.377778 0.633333
vt 0.438889 0.633333
vt 0.500000 0.633333
vt 0.561111 0.633333
vt 0.622222 0.633333
vt 0.683333 0.633333
vt 0.333333 0.666667
vt 0.388889 0.666667
vt 0.444445 0.666667
vt 0.500000 0.666667
vt 0.555556 0.666667
vt 0.611111 0.666667
vt 0.666667 0.666667
vt 0.350000 0.700000
vt 0.400000 0.700000
vt 0.450000 0.700000
vt 0.500000 0.700000
vt 0.550000 0.700000
vt 0.600000 0.700000
vt 0.650000 0.700000
vt 0.366667 0.733334
vt 0.411111 0.733334
vt 0.455556 0.733334
vt 0.500000 0.733334
vt 0.544445 0.733334
vt 0.588889 0.733334
vt 0.633333 0.733334
vt 0.383333 0.766667
vt 0.422222 0.766667
vt 0.461111 0.766667
vt 0.500000 0.766667
vt 0.538889 0.766667
vt 0.577778 0.766667
vt 0.616667 0.766667
vt 0.400000 0.800000
vt 0.433333 0.800000
vt 0.466667 0.800000
vt 0.500000 0.800000
vt 0.533333 0.800000
vt 0.566667 0.800000
vt 0.600000 0.800000
vt 0.416667 0.833334
vt 0.444445 0.833334
vt 0.472222 0.833334
vt 0.500000 0.833334
vt 0.527778 0.833334
vt 0.555556 0.833334
vt 0.583334 0.833334
vt 0.433333 0.866667
vt 0.455556 0.866667
vt 0.477778 0.866667
vt 0.500000 0.866667
vt 0.522222 0.866667
vt 0.544445 0.866667
vt 0.566667 0.866667
vt 0.450000 0.900000
vt 0.466667 0.900000
vt 0.483334 0.900000
vt 0.500000 0.900000
vt 0.516667 0.900000
vt 0.533333 0.900000
vt 0.550000 0.900000
vt 0.466667 0.933334
vt 0.477778 0.933334
vt 0.488889 0.933334
vt 0.500000 0.933334
vt 0.511111 0.933334
vt 0.522222 0.933334
vt 0.533334 0.933334
vt 0.483334 0.966667
vt 0.488889 0.966667
vt 0.494445 0.966667
vt 0.500000 0.966667
vt 0.505556 0.966667
vt 0.511111 0.966667
vt 0.516667 0.966667
vt 0.500000 0.250000
vt 0.500000 1.000000
vn 0.089020 0.980228 -0.176716
vn 0.089020 0.980228 -0.176716
vn 0.089019 0.980228 -0.176718
vn 0.089019 0.980228 -0.176717
vn 0.089020 0.980228 -0.176716
vn 0.089020 0.980228 -0.176716
vn 0.089020 0.980228 -0.176716
vn 0.089020 0.980228 -0.176717
vn 0.089020 0.980228 -0.176716
vn 0.089020 0.980228 -0.176717
vn 0.089020 0.980228 -0.176716
vn 0.089020 0.980228 -0.176716
vn 0.089020 0.980228 -0.176716
vn 0.089020 0.980228 -0.176716
vn 0.089020 0.980228 -0.176716
vn 0.089020 0.980228 -0.176716
vn 0.089020 0.980228 -0.176716
vn 0.089020 0.980228 -0.176716
vn 0.089020 0.980228 -0.176715
vn 0.089020 0.980228 -0.176716
vn 0.089020 0.980228 -0.176716
vn 0.089020 0.980228 -0.176715
vn 0.089020 0.980228 -0.176715
vn 0.089020 0.980228 -0.176716
vn 0.089020 0.980228 -0.176715
vn 0.089020 0.980228 -0.176715
vn 0.089020 0.980228 -0.176716
vn 0.089020 0.980228 -0.176715
vn 0.089020 0.980228 -0.176715
vn 0.089020 0.980228 -0.176715
vn 0.089020 0.980228 -0.176716
vn 0.089020 0.980228 -0.176716
vn 0.089020 0.980228 -0.176716
vn 0.089020 0.980228 -0.176717
vn 0.089020 0.980228 -0.176717
vn 0.089020 0.980228 -0.176716
vn 0.089019 0.980228 -0.176717
vn 0.089019 0.980228 -0.176717
vn 0.089020 0.980228 -0.176716
vn 0.089020 0.980228 -0.176716
vn 0.089020 0.980228 -0.176716
vn 0.089020 0.980228 -0.176716
vn 0.089020 0.980228 -0.176715
vn 0.089020 0.980228 -0.176715
vn 0.089020 0.980228 -0.176716
vn 0.089020 0.980228 -0.176715
vn 0.089020 0.980228 -0.176715
vn 0.089020 0.980228 -0.176716
vn 0.089020 0.980228 -0.176716
vn 0.089020 0.980228 -0.176716
vn 0.089020 0.980228 -0.176716
vn 0.089020 0.980228 -0.176716
vn 0.089020 0.980228 -0.176716
vn 0.089020 0.980228 -0.176716
vn 0.089020 0.980228 -0.176716
vn 0.089020 0.980228 -0.176716
vn 0.089020 0.980228 -0.176716
vn 0.089020 0.980228 -0.176716
vn 0.089020 0.980228 -0.176716
vn 0.089020 0.980228 -0.176716
vn 0.089020 0.980228 -0.176715
vn 0.089020 0.980228 -0.176715
vn 0.089020 0.980228 -0.176716
vn 0.089020 0.980228 -0.176716
vn 0.089020 0.980228 -0.176716
vn 0.089020 0.980228 -0.176716
vn 0.039768 -0.677809 0.734161
vn 0.039768 -0.677809 0.734161
vn 0.047718 -0.647803 0.760312
vn 0.049522 -0.640805 0.766105
vn -0.612900 -0.540269 0.576596
vn -0.612900 -0.540269 0.576596
vn -0.636829 -0.493780 0.592140
vn -0.625314 -0.516796 0.584727
vn -0.884401 0.272875 -0.378648
vn -0.884401 0.272875 -0.378649
vn -0.926332 0.112243 -0.359598
vn -0.902244 0.216302 -0.373054
vn -0.053093 0.626737 -0.777420
vn -0.053093 0.626737 -0.777420
vn -0.074661 0.535522 -0.841214
vn -0.070248 0.555090 -0.828819
vn 0.653935 0.457046 -0.602891
vn 0.653935 0.457046 -0.602891
vn 0.682979 0.385813 -0.620232
vn 0.710604 0.302716 -0.635142
vn 0.826101 -0.409874 0.386730
vn 0.826102 -0.409874 0.386730
vn 0.826066 -0.409943 0.386732
vn 0.826007 -0.410058 0.386735
vn 0.129700 -0.243887 0.961092
vn 0.129699 -0.243887 0.961092
vn -0.731385 -0.222752 0.644560
vn -0.731385 -0.222752 0.644560
vn -0.896457 -0.368368 -0.246312
vn -0.896457 -0.368368 -0.246312
vn -0.200445 -0.535120 -0.820651
vn -0.200445 -0.535120 -0.820651
vn 0.660639 -0.556254 -0.504120
vn 0.660639 -0.556254 -0.504120
vn 0.825712 -0.410638 0.386751
vn 0.825712 -0.410638 0.386751
vn 0.129700 -0.243887 0.961092
vn 0.129700 -0.243887 0.961092
vn -0.731385 -0.222752 0.644560
vn -0.731385 -0.222752 0.644560
vn -0.896457 -0.368368 -0.246312
vn -0.896457 -0.368368 -0.246312
vn -0.200445 -0.535119 -0.820652
vn -0.200445 -0.535119 -0.820652
vn 0.660639 -0.556254 -0.504120
vn 0.660639 -0.556254 -0.504120
vn 0.825711 -0.410639 0.386751
vn 0.825711 -0.410639 0.386751
vn 0.129700 -0.243887 0.961092
vn 0.129700 -0.243887 0.961092
vn -0.731385 -0.222752 0.644560
vn -0.731385 -0.222752 0.644560
vn -0.874443 -0.421739 -0.239761
vn -0.861828 -0.448932 -0.236034
vn -0.188113 -0.822528 -0.536714
vn -0.186415 -0.835390 -0.517081
vn 0.502613 -0.792488 -0.345461
vn 0.558180 -0.727259 -0.399411
vn 0.873472 -0.267190 0.407009
vn 0.854580 -0.332281 0.399102
vn 0.199461 0.483554 0.852286
vn 0.197243 0.417580 0.886974
vn -0.763451 0.089902 0.639578
vn -0.729668 0.356767 0.583354
vn -0.805228 -0.550170 -0.221180
vn -0.804875 -0.550539 -0.221545
vn -0.180319 -0.873257 -0.452668
vn -0.181697 -0.865636 -0.466541
vn 0.516211 -0.777806 -0.358531
vn 0.471964 -0.822935 -0.316273
vn 0.905615 -0.021797 0.423540
vn 0.906232 -0.023586 0.422123
vn 0.200617 0.600689 0.773903
vn 0.200094 0.638254 0.743367
vn -0.696975 0.466976 0.544206
vn -0.748831 0.260051 0.609611
vn -0.842681 -0.485284 -0.233212
vn -0.860397 -0.450859 -0.237577
vn -0.200445 -0.535119 -0.820652
vn -0.200445 -0.535119 -0.820652
vn 0.660639 -0.556254 -0.504120
vn 0.660639 -0.556254 -0.504120
vn 0.869494 -0.277608 0.408550
vn 0.888559 -0.188376 0.418303
vn 0.129700 -0.243888 0.961092
vn 0.129700 -0.243888 0.961092
vn -0.731385 -0.222752 0.644560
vn -0.731385 -0.222752 0.644560
vn -0.896457 -0.368368 -0.246312
vn -0.896457 -0.368368 -0.246312
vn -0.200445 -0.535118 -0.820652
vn -0.200445 -0.535119 -0.820652
vn 0.660639 -0.556254 -0.504121
vn 0.660639 -0.556254 -0.504121
vn 0.825711 -0.410639 0.386751
vn 0.825711 -0.410639 0.386751
vn 0.129699 -0.243888 0.961091
vn 0.129699 -0.243888 0.961091
vn -0.731385 -0.222752 0.644560
vn -0.731385 -0.222752 0.644560
vn -0.896457 -0.368367 -0.246312
vn -0.896457 -0.368367 -0.246312
vn -0.200445 -0.535118 -0.820653
vn -0.200445 -0.535118 -0.820653
vn 0.660639 -0.556254 -0.504120
vn 0.660639 -0.556254 -0.504120
vn 0.825712 -0.410638 0.386751
vn 0.825712 -0.410638 0.386751
vn 0.129699 -0.243888 0.961091
vn 0.129699 -0.243888 0.961091
vn -0.731385 -0.222753 0.644560
vn -0.731385 -0.222753 0.644560
vn -0.939674 -0.247280 -0.236360
vn -0.928300 -0.284197 -0.239773
vn -0.051267 -0.229928 -0.971856
vn -0.060866 -0.250076 -0.966311
vn 0.660639 -0.556254 -0.504120
vn 0.660639 -0.556254 -0.504120
vn 0.825711 -0.410639 0.386751
vn 0.825711 -0.410639 0.386751
vn 0.036884 -0.688360 0.724431
vn 0.028965 -0.716427 0.697060
vn -0.540508 -0.655848 0.526987
vn -0.638476 -0.490382 0.593190
vn -0.962203 -0.164681 -0.216900
vn -0.961367 -0.159461 -0.224379
vn 0.250150 0.373919 -0.893090
vn 0.250919 0.373833 -0.892910
vn 0.724755 -0.376316 -0.577163
vn 0.756135 0.073813 -0.650239
vn 0.753218 -0.532300 0.386419
vn 0.612504 -0.698112 0.370779
vn -0.003018 -0.816742 0.576996
vn 0.001722 -0.803176 0.595739
vn -0.548377 -0.644743 0.532530
vn -0.463241 -0.750653 0.471093
vn -0.945346 -0.236051 -0.224947
vn -0.950594 -0.217373 -0.221632
vn 0.096346 -0.016753 -0.995207
vn 0.117960 0.023993 -0.992728
vn 0.698419 0.341768 -0.628813
vn 0.762654 -0.117368 -0.636069
vn 0.527518 -0.771524 0.355634
vn 0.671307 -0.636925 0.379043
vn 0.129699 -0.243887 0.961092
vn 0.129699 -0.243887 0.961092
vn -0.731385 -0.222752 0.644560
vn -0.731385 -0.222752 0.644560
vn -0.896457 -0.368368 -0.246312
vn -0.896457 -0.368368 -0.246312
vn -0.200445 -0.535119 -0.820652
vn -0.200445 -0.535119 -0.820652
vn 0.660639 -0.556254 -0.504120
vn 0.660639 -0.556254 -0.504120
vn 0.825712 -0.410638 0.386751
vn 0.825712 -0.410638 0.386751
vn 0.129700 -0.243887 0.961092
vn 0.129700 -0.243887 0.961092
vn -0.731385 -0.222752 0.644560
vn -0.731385 -0.222752 0.644560
vn -0.896457 -0.368368 -0.246312
vn -0.896457 -0.368368 -0.246312
vn -0.200445 -0.535119 -0.820652
vn -0.200445 -0.535119 -0.820652
vn 0.660639 -0.556254 -0.504120
vn 0.660639 -0.556254 -0.504120
vn 0.825712 -0.410638 0.386751
vn 0.825712 -0.410638 0.386751
vn 0.129700 -0.243888 0.961092
vn 0.129700 -0.243888 0.961092
vn -0.731385 -0.222752 0.644560
vn -0.731385 -0.222752 0.644560
vn -0.896457 -0.368368 -0.246312
vn -0.896457 -0.368368 -0.246312
vn -0.200445 -0.535119 -0.820652
vn -0.200445 -0.535119 -0.820652
vn 0.660639 -0.556254 -0.504120
vn 0.660639 -0.556254 -0.504120
vn 0.825711 -0.410638 0.386751
vn 0.825711 -0.410638 0.386751
vn 0.089020 0.980228 -0.176716
vn 0.129700 -0.243888 0.961092
vn -0.731385 -0.222752 0.644560
vn -0.896457 -0.368368 -0.246312
vn -0.200445 -0.535119 -0.820652
vn 0.660639 -0.556254 -0.504120
vn 0.825712 -0.410638 0.386751
s 1
g pCone1
usemtl initialShadingGroup
f 1/1/1 2/2/2 8/8/3 7/7/4
f 2/2/2 3/3/5 9/9/6 8/8/3
f 3/3/5 4/4/7 10/10/8 9/9/6
f 4/4/7 5/5/9 11/11/10 10/10/8
f 5/5/9 6/6/11 12/12/12 11/11/10
f 6/6/11 1/1/1 7/7/4 12/12/12
f 7/7/4 8/8/3 14/14/13 13/13/14
f 8/8/3 9/9/6 15/15/15 14/14/13
f 9/9/6 10/10/8 16/16/16 15/15/15
f 10/10/8 11/11/10 17/17/17 16/16/16
f 11/11/10 12/12/12 18/18/18 17/17/17
f 12/12/12 7/7/4 13/13/14 18/18/18
f 13/13/14 14/14/13 20/20/19 19/19/20
f 14/14/13 15/15/15 21/21/21 20/20/19
f 15/15/15 16/16/16 22/22/22 21/21/21
f 16/16/16 17/17/17 23/23/23 22/22/22
f 17/17/17 18/18/18 24/24/24 23/23/23
f 18/18/18 13/13/14 19/19/20 24/24/24
f 19/19/20 20/20/19 26/26/25 25/25/26
f 20/20/19 21/21/21 27/27/27 26/26/25
f 21/21/21 22/22/22 28/28/28 27/27/27
f 22/22/22 23/23/23 29/29/29 28/28/28
f 23/23/23 24/24/24 30/30/30 29/29/29
f 24/24/24 19/19/20 25/25/26 30/30/30
f 25/25/26 26/26/25 32/32/31 31/31/32
f 26/26/25 27/27/27 33/33/33 32/32/31
f 27/27/27 28/28/28 34/34/34 33/33/33
f 28/28/28 29/29/29 35/35/35 34/34/34
f 29/29/29 30/30/30 36/36/36 35/35/35
f 30/30/30 25/25/26 31/31/32 36/36/36
f 31/31/32 32/32/31 38/38/37 37/37/38
f 32/32/31 33/33/33 39/39/39 38/38/37
f 33/33/33 34/34/34 40/40/40 39/39/39
f 34/34/34 35/35/35 41/41/41 40/40/40
f 35/35/35 36/36/36 42/42/42 41/41/41
f 36/36/36 31/31/32 37/37/38 42/42/42
f 37/37/38 38/38/37 44/44/43 43/43/44
f 38/38/37 39/39/39 45/45/45 44/44/43
f 39/39/39 40/40/40 46/46/46 45/45/45
f 40/40/40 41/41/41 47/47/47 46/46/46
f 41/41/41 42/42/42 48/48/48 47/47/47
f 42/42/42 37/37/38 43/43/44 48/48/48
f 43/43/44 44/44/43 50/50/49 49/49/50
f 44/44/43 45/45/45 51/51/51 50/50/49
f 45/45/45 46/46/46 52/52/52 51/51/51
f 46/46/46 47/47/47 53/53/53 52/52/52
f 47/47/47 48/48/48 54/54/54 53/53/53
f 48/48/48 43/43/44 49/49/50 54/54/54
f 49/49/50 50/50/49 56/56/55 55/55/56
f 50/50/49 51/51/51 57/57/57 56/56/55
f 51/51/51 52/52/52 58/58/58 57/57/57
f 52/52/52 53/53/53 59/59/59 58/58/58
f 53/53/53 54/54/54 60/60/60 59/59/59
f 54/54/54 49/49/50 55/55/56 60/60/60
f 55/55/56 56/56/55 62/62/61 61/61/62
f 56/56/55 57/57/57 63/63/63 62/62/61
f 57/57/57 58/58/58 64/64/64 63/63/63
f 58/58/58 59/59/59 65/65/65 64/64/64
f 59/59/59 60/60/60 66/66/66 65/65/65
f 60/60/60 55/55/56 61/61/62 66/66/66
s 2
f 61/67/67 62/68/68 68/75/69 67/74/70
s 3
f 62/68/71 63/69/72 69/76/73 68/75/74
s 4
f 63/69/75 64/70/76 70/77/77 69/76/78
s 5
f 64/70/79 65/71/80 71/78/81 70/77/82
s 6
f 65/71/83 66/72/84 72/79/85 71/78/86
s 7
f 66/72/87 61/73/88 67/80/89 72/79/90
s 2
f 67/74/70 68/75/69 74/82/91 73/81/92
s 3
f 68/75/74 69/76/73 75/83/93 74/82/94
s 4
f 69/76/78 70/77/77 76/84/95 75/83/96
s 5
f 70/77/82 71/78/81 77/85/97 76/84/98
s 6
f 71/78/86 72/79/85 78/86/99 77/85/100
s 7
f 72/79/90 67/80/89 73/87/101 78/86/102
s 2
f 73/81/92 74/82/91 80/89/103 79/88/104
s 3
f 74/82/94 75/83/93 81/90/105 80/89/106
s 4
f 75/83/96 76/84/95 82/91/107 81/90/108
s 5
f 76/84/98 77/85/97 83/92/109 82/91/110
s 6
f 77/85/100 78/86/99 84/93/111 83/92/112
s 7
f 78/86/102 73/87/101 79/94/113 84/93/114
s 2
f 79/88/104 80/89/103 86/96/115 85/95/116
s 3
f 80/89/106 81/90/105 87/97/117 86/96/118
s 4
f 81/90/108 82/91/107 88/98/119 87/97/120
s 5
f 82/91/110 83/92/109 89/99/121 88/98/122
s 6
f 83/92/112 84/93/111 90/100/123 89/99/124
s 7
f 84/93/114 79/94/113 85/101/125 90/100/126
s 2
f 85/95/116 86/96/115 92/103/127 91/102/128
s 3
f 86/96/118 87/97/117 93/104/129 92/103/130
s 4
f 87/97/120 88/98/119 94/105/131 93/104/132
s 5
f 88/98/122 89/99/121 95/106/133 94/105/134
s 6
f 89/99/124 90/100/123 96/107/135 95/106/136
s 7
f 90/100/126 85/101/125 91/108/137 96/107/138
s 2
f 91/102/128 92/103/127 98/110/139 97/109/140
s 3
f 92/103/130 93/104/129 99/111/141 98/110/142
s 4
f 93/104/132 94/105/131 100/112/143 99/111/144
s 5
f 94/105/134 95/106/133 101/113/145 100/112/146
s 6
f 95/106/136 96/107/135 102/114/147 101/113/148
s 7
f 96/107/138 91/108/137 97/115/149 102/114/150
s 2
f 97/109/140 98/110/139 104/117/151 103/116/152
s 3
f 98/110/142 99/111/141 105/118/153 104/117/154
s 4
f 99/111/144 100/112/143 106/119/155 105/118/156
s 5
f 100/112/146 101/113/145 107/120/157 106/119/158
s 6
f 101/113/148 102/114/147 108/121/159 107/120/160
s 7
f 102/114/150 97/115/149 103/122/161 108/121/162
s 2
f 103/116/152 104/117/151 110/124/163 109/123/164
s 3
f 104/117/154 105/118/153 111/125/165 110/124/166
s 4
f 105/118/156 106/119/155 112/126/167 111/125/168
s 5
f 106/119/158 107/120/157 113/127/169 112/126/170
s 6
f 107/120/160 108/121/159 114/128/171 113/127/172
s 7
f 108/121/162 103/122/161 109/129/173 114/128/174
s 2
f 109/123/164 110/124/163 116/131/175 115/130/176
s 3
f 110/124/166 111/125/165 117/132/177 116/131/178
s 4
f 111/125/168 112/126/167 118/133/179 117/132/180
s 5
f 112/126/170 113/127/169 119/134/181 118/133/182
s 6
f 113/127/172 114/128/171 120/135/183 119/134/184
s 7
f 114/128/174 109/129/173 115/136/185 120/135/186
s 2
f 115/130/176 116/131/175 122/138/187 121/137/188
s 3
f 116/131/178 117/132/177 123/139/189 122/138/190
s 4
f 117/132/180 118/133/179 124/140/191 123/139/192
s 5
f 118/133/182 119/134/181 125/141/193 124/140/194
s 6
f 119/134/184 120/135/183 126/142/195 125/141/196
s 7
f 120/135/186 115/136/185 121/143/197 126/142/198
s 2
f 121/137/188 122/138/187 128/145/199 127/144/200
s 3
f 122/138/190 123/139/189 129/146/201 128/145/202
s 4
f 123/139/192 124/140/191 130/147/203 129/146/204
s 5
f 124/140/194 125/141/193 131/148/205 130/147/206
s 6
f 125/141/196 126/142/195 132/149/207 131/148/208
s 7
f 126/142/198 121/143/197 127/150/209 132/149/210
s 2
f 127/144/200 128/145/199 134/152/211 133/151/212
s 3
f 128/145/202 129/146/201 135/153/213 134/152/214
s 4
f 129/146/204 130/147/203 136/154/215 135/153/216
s 5
f 130/147/206 131/148/205 137/155/217 136/154/218
s 6
f 131/148/208 132/149/207 138/156/219 137/155/220
s 7
f 132/149/210 127/150/209 133/157/221 138/156/222
s 2
f 133/151/212 134/152/211 140/159/223 139/158/224
s 3
f 134/152/214 135/153/213 141/160/225 140/159/226
s 4
f 135/153/216 136/154/215 142/161/227 141/160/228
s 5
f 136/154/218 137/155/217 143/162/229 142/161/230
s 6
f 137/155/220 138/156/219 144/163/231 143/162/232
s 7
f 138/156/222 133/157/221 139/164/233 144/163/234
s 2
f 139/158/224 140/159/223 146/166/235 145/165/236
s 3
f 140/159/226 141/160/225 147/167/237 146/166/238
s 4
f 141/160/228 142/161/227 148/168/239 147/167/240
s 5
f 142/161/230 143/162/229 149/169/241 148/168/242
s 6
f 143/162/232 144/163/231 150/170/243 149/169/244
s 7
f 144/163/234 139/164/233 145/171/245 150/170/246
s 1
f 2/2/2 1/1/1 151/172/247
f 3/3/5 2/2/2 151/172/247
f 4/4/7 3/3/5 151/172/247
f 5/5/9 4/4/7 151/172/247
f 6/6/11 5/5/9 151/172/247
f 1/1/1 6/6/11 151/172/247
s 2
f 145/165/236 146/166/235 152/173/248
s 3
f 146/166/238 147/167/237 152/173/249
s 4
f 147/167/240 148/168/239 152/173/250
s 5
f 148/168/242 149/169/241 152/173/251
s 6
f 149/169/244 150/170/243 152/173/252
s 7
f 150/170/246 145/171/245 152/173/253
