# This file uses centimeters as units for non-parametric coordinates.

mtllib raindrop.mtl
g default
v 0.737173 0.242168 -2.105158
v 0.658834 0.242168 -2.249914
v 0.537738 0.242168 -2.361391
v 0.387007 0.242168 -2.427508
v 0.222975 0.242168 -2.441100
v 0.063417 0.242168 -2.400695
v -0.074376 0.242168 -2.310670
v -0.175473 0.242168 -2.180782
v -0.228916 0.242168 -2.025105
v -0.228916 0.242168 -1.860511
v -0.175473 0.242168 -1.704834
v -0.074376 0.242168 -1.574946
v 0.063417 0.242168 -1.484921
v 0.222975 0.242168 -1.444516
v 0.387007 0.242168 -1.458108
v 0.537738 0.242168 -1.524225
v 0.658834 0.242168 -1.635702
v 0.737173 0.242168 -1.780458
v 0.764264 0.242168 -1.942808
v 1.083366 0.608193 -2.224006
v 0.947680 0.608193 -2.474732
v 0.737935 0.608193 -2.667815
v 0.476861 0.567540 -2.704119
v 0.192748 0.567540 -2.727661
v -0.083614 0.608193 -2.735891
v -0.322279 0.608193 -2.579964
v -0.497382 0.608193 -2.354990
v -0.589950 0.608193 -2.085351
v -0.589950 0.608193 -1.800265
v -0.497382 0.608193 -1.530625
v -0.322279 0.608193 -1.305652
v -0.083614 0.608193 -1.149725
v 0.192748 0.608193 -1.079741
v 0.476861 0.608193 -1.103283
v 0.737935 0.608193 -1.217801
v 0.947680 0.608193 -1.410884
v 1.083366 0.608193 -1.661610
v 1.130290 0.608193 -1.942808
v 1.210081 1.297865 -2.229012
v 1.053405 1.297865 -2.490054
v 0.811212 1.297865 -2.691082
v 0.509750 1.260139 -2.833994
v 0.181685 1.227665 -2.861178
v -0.137431 1.181682 -2.858581
v -0.413017 1.214156 -2.678532
v -0.615209 1.108193 -2.418756
v -0.722097 1.108193 -2.107403
v -0.722097 1.108193 -1.778214
v -0.615209 1.108193 -1.466861
v -0.324010 1.114896 -1.283578
v -0.081275 1.122182 -1.034053
v 0.181685 1.297865 -1.037641
v 0.509750 1.297865 -1.062173
v 0.811212 1.297865 -1.181403
v 1.053405 1.297865 -1.382432
v 1.210081 1.297865 -1.643474
v 1.264264 1.297865 -1.936243
v 1.083366 1.797865 -2.189788
v 0.947680 1.797865 -2.415857
v 0.737935 1.797865 -2.589953
v 0.476861 1.797865 -2.693209
v 0.192748 1.797865 -2.714436
v -0.083614 1.797865 -2.651334
v -0.322279 1.797865 -2.510740
v -0.497382 1.797865 -2.307891
v -0.589950 1.797865 -2.064768
v -0.589950 1.797865 -1.807717
v -0.497382 1.797865 -1.564594
v -0.322279 1.797865 -1.361745
v -0.083614 1.797865 -1.221151
v 0.192748 1.797865 -1.158049
v 0.476861 1.797865 -1.179276
v 0.737935 1.797865 -1.282533
v 0.947680 1.797865 -1.456629
v 1.083366 1.797865 -1.682698
v 1.130290 1.797865 -1.936243
v 0.561724 2.369742 -2.037609
v 0.512660 2.369742 -2.127990
v 0.436817 2.369742 -2.197592
v 0.342412 2.369742 -2.238873
v 0.239678 2.369742 -2.247360
v 0.139746 2.369742 -2.222132
v 0.053445 2.369742 -2.165924
v -0.009872 2.369742 -2.084826
v -0.043345 2.369742 -1.987626
v -0.043345 2.369742 -1.884859
v -0.009872 2.369742 -1.787659
v 0.053445 2.369742 -1.706562
v 0.139746 2.369742 -1.650353
v 0.239678 2.369742 -1.625125
v 0.342412 2.369742 -1.633612
v 0.436817 2.369742 -1.674893
v 0.512660 2.369742 -1.744495
v 0.561724 2.369742 -1.834877
v 0.578691 2.369742 -1.936243
v 0.264264 0.108193 -1.942808
v 0.265538 2.812440 -1.936243
vt 0.000000 0.166667
vt 0.052632 0.166667
vt 0.105263 0.166667
vt 0.157895 0.166667
vt 0.210526 0.166667
vt 0.263158 0.166667
vt 0.315789 0.166667
vt 0.368421 0.166667
vt 0.421053 0.166667
vt 0.473684 0.166667
vt 0.526316 0.166667
vt 0.578947 0.166667
vt 0.631579 0.166667
vt 0.684210 0.166667
vt 0.736842 0.166667
vt 0.789474 0.166667
vt 0.842105 0.166667
vt 0.894737 0.166667
vt 0.947368 0.166667
vt 1.000000 0.166667
vt 0.000000 0.333333
vt 0.052632 0.333333
vt 0.105263 0.333333
vt 0.157895 0.333333
vt 0.210526 0.333333
vt 0.263158 0.333333
vt 0.315789 0.333333
vt 0.368421 0.333333
vt 0.421053 0.333333
vt 0.473684 0.333333
vt 0.526316 0.333333
vt 0.578947 0.333333
vt 0.631579 0.333333
vt 0.684210 0.333333
vt 0.736842 0.333333
vt 0.789474 0.333333
vt 0.842105 0.333333
vt 0.894737 0.333333
vt 0.947368 0.333333
vt 1.000000 0.333333
vt 0.000000 0.500000
vt 0.052632 0.500000
vt 0.105263 0.500000
vt 0.157895 0.500000
vt 0.210526 0.500000
vt 0.263158 0.500000
vt 0.315789 0.500000
vt 0.368421 0.500000
vt 0.421053 0.500000
vt 0.473684 0.500000
vt 0.526316 0.500000
vt 0.578947 0.500000
vt 0.631579 0.500000
vt 0.684210 0.500000
vt 0.736842 0.500000
vt 0.789474 0.500000
vt 0.842105 0.500000
vt 0.894737 0.500000
vt 0.947368 0.500000
vt 1.000000 0.500000
vt 0.000000 0.666667
vt 0.052632 0.666667
vt 0.105263 0.666667
vt 0.157895 0.666667
vt 0.210526 0.666667
vt 0.263158 0.666667
vt 0.315789 0.666667
vt 0.368421 0.666667
vt 0.421053 0.666667
vt 0.473684 0.666667
vt 0.526316 0.666667
vt 0.578947 0.666667
vt 0.631579 0.666667
vt 0.684210 0.666667
vt 0.736842 0.666667
vt 0.789474 0.666667
vt 0.842105 0.666667
vt 0.894737 0.666667
vt 0.947368 0.666667
vt 1.000000 0.666667
vt 0.000000 0.833333
vt 0.052632 0.833333
vt 0.105263 0.833333
vt 0.157895 0.833333
vt 0.210526 0.833333
vt 0.263158 0.833333
vt 0.315789 0.833333
vt 0.368421 0.833333
vt 0.421053 0.833333
vt 0.473684 0.833333
vt 0.526316 0.833333
vt 0.578947 0.833333
vt 0.631579 0.833333
vt 0.684210 0.833333
vt 0.736842 0.833333
vt 0.789474 0.833333
vt 0.842105 0.833333
vt 0.894737 0.833333
vt 0.947368 0.833333
vt 1.000000 0.833333
vt 0.026316 0.000000
vt 0.078947 0.000000
vt 0.131579 0.000000
vt 0.184211 0.000000
vt 0.236842 0.000000
vt 0.289474 0.000000
vt 0.342105 0.000000
vt 0.394737 0.000000
vt 0.447368 0.000000
vt 0.500000 0.000000
vt 0.552632 0.000000
vt 0.605263 0.000000
vt 0.657895 0.000000
vt 0.710526 0.000000
vt 0.763158 0.000000
vt 0.815789 0.000000
vt 0.868421 0.000000
vt 0.921053 0.000000
vt 0.973684 0.000000
vt 0.026316 1.000000
vt 0.078947 1.000000
vt 0.131579 1.000000
vt 0.184211 1.000000
vt 0.236842 1.000000
vt 0.289474 1.000000
vt 0.342105 1.000000
vt 0.394737 1.000000
vt 0.447368 1.000000
vt 0.500000 1.000000
vt 0.552632 1.000000
vt 0.605263 1.000000
vt 0.657895 1.000000
vt 0.710526 1.000000
vt 0.763158 1.000000
vt 0.815789 1.000000
vt 0.868421 1.000000
vt 0.921053 1.000000
vt 0.973684 1.000000
vn 0.668794 -0.707107 -0.229597
vn 0.558007 -0.707107 -0.434314
vn 0.558007 -0.707107 -0.434314
vn 0.668794 -0.707107 -0.229597
vn 0.374252 -0.700838 -0.607258
vn 0.388100 -0.701725 -0.597462
vn 0.149920 -0.672294 -0.724945
vn 0.162809 -0.674159 -0.720418
vn -0.028732 -0.671428 -0.740513
vn -0.038512 -0.672701 -0.738911
vn -0.264876 -0.700029 -0.663174
vn -0.280343 -0.701049 -0.655696
vn -0.478910 -0.707107 -0.520236
vn -0.478910 -0.707107 -0.520236
vn -0.621882 -0.707107 -0.336546
vn -0.621882 -0.707107 -0.336546
vn -0.697463 -0.707107 -0.116386
vn -0.697463 -0.707107 -0.116386
vn -0.697463 -0.707107 0.116386
vn -0.697463 -0.707107 0.116386
vn -0.621882 -0.707107 0.336546
vn -0.621882 -0.707107 0.336546
vn -0.478910 -0.707107 0.520235
vn -0.478910 -0.707107 0.520235
vn -0.284042 -0.707107 0.647549
vn -0.284042 -0.707107 0.647550
vn -0.058392 -0.707107 0.704692
vn -0.058392 -0.707107 0.704692
vn 0.173585 -0.707107 0.685470
vn 0.173585 -0.707107 0.685470
vn 0.386751 -0.707107 0.591966
vn 0.386751 -0.707107 0.591966
vn 0.558006 -0.707107 0.434314
vn 0.558007 -0.707107 0.434314
vn 0.668794 -0.707107 0.229597
vn 0.668794 -0.707107 0.229597
vn 0.707107 -0.707107 -0.000000
vn 0.707107 -0.707107 -0.000000
vn 0.924718 -0.169237 -0.340963
vn 0.761140 -0.129411 -0.635547
vn 0.771442 -0.131730 -0.622515
vn 0.928553 -0.170316 -0.329822
vn 0.480225 -0.120338 -0.868852
vn 0.510447 -0.118295 -0.851734
vn 0.196065 -0.163920 -0.966793
vn 0.211180 -0.159697 -0.964313
vn 0.056182 -0.196727 -0.978847
vn 0.056005 -0.196751 -0.978853
vn -0.259274 -0.219585 -0.940510
vn -0.277248 -0.220140 -0.935239
vn -0.645735 -0.227317 -0.728940
vn -0.637882 -0.226762 -0.735993
vn -0.837860 -0.247342 -0.486633
vn -0.829844 -0.246221 -0.500733
vn -0.952752 -0.258819 -0.158986
vn -0.952752 -0.258819 -0.158986
vn -0.952752 -0.258819 0.158986
vn -0.952752 -0.258819 0.158986
vn -0.810980 -0.205473 0.547807
vn -0.813960 -0.206773 0.542875
vn -0.645632 -0.121788 0.753875
vn -0.645380 -0.120916 0.754231
vn -0.390994 -0.121289 0.912367
vn -0.310751 -0.124919 0.942247
vn 0.009926 -0.091448 0.995760
vn 0.025722 -0.084506 0.996091
vn 0.229653 -0.071872 0.970615
vn 0.235906 -0.072281 0.969084
vn 0.518448 -0.100994 0.849124
vn 0.529099 -0.102520 0.842344
vn 0.760867 -0.141475 0.633298
vn 0.769253 -0.143160 0.622700
vn 0.924308 -0.175673 0.338812
vn 0.926923 -0.176263 0.331279
vn 0.982340 -0.187100 -0.000996
vn 0.982337 -0.187119 0.001035
vn 0.904051 0.255967 -0.342305
vn 0.734825 0.248999 -0.630897
vn 0.731555 0.248877 -0.634734
vn 0.902833 0.255913 -0.345545
vn 0.494032 0.246945 -0.833637
vn 0.495472 0.246920 -0.832789
vn 0.204900 0.252760 -0.945584
vn 0.216273 0.252604 -0.943089
vn -0.043443 0.274453 -0.960619
vn -0.034716 0.272720 -0.961467
vn -0.317272 0.307713 -0.897024
vn -0.320674 0.307927 -0.895739
vn -0.649798 0.287492 -0.703641
vn -0.652988 0.286813 -0.700960
vn -0.864583 0.228748 -0.447405
vn -0.861897 0.229701 -0.452075
vn -0.964797 0.199033 -0.171907
vn -0.965860 0.198763 -0.166157
vn -0.965784 0.195830 0.170032
vn -0.966124 0.195776 0.168154
vn -0.804078 0.181236 0.566226
vn -0.806656 0.181638 0.562418
vn -0.627626 0.150903 0.763750
vn -0.627918 0.151013 0.763488
vn -0.479571 0.190867 0.856494
vn -0.458621 0.196092 0.866727
vn -0.083069 0.244706 0.966032
vn -0.060530 0.243223 0.968080
vn 0.217382 0.236124 0.947096
vn 0.215315 0.236100 0.947574
vn 0.494477 0.241356 0.835009
vn 0.490741 0.241259 0.837238
vn 0.734825 0.248999 0.630897
vn 0.731555 0.248877 0.634734
vn 0.904051 0.255967 0.342305
vn 0.902833 0.255913 0.345545
vn 0.965926 0.258819 -0.000000
vn 0.965926 0.258819 -0.000000
vn 0.682649 0.687453 -0.247786
vn 0.571841 0.671835 -0.470783
vn 0.565314 0.670996 -0.479776
vn 0.680452 0.687118 -0.254664
vn 0.397982 0.652716 -0.644649
vn 0.389657 0.651968 -0.650465
vn 0.179026 0.638335 -0.748650
vn 0.174162 0.638141 -0.749963
vn -0.060423 0.635334 -0.769870
vn -0.058350 0.635302 -0.770056
vn -0.292707 0.645208 -0.705712
vn -0.285040 0.644682 -0.709321
vn -0.491290 0.663453 -0.564326
vn -0.483039 0.662518 -0.572488
vn -0.634761 0.682073 -0.363119
vn -0.630290 0.681425 -0.372015
vn -0.709489 0.693520 -0.125117
vn -0.708890 0.693424 -0.128990
vn -0.709489 0.693521 0.125117
vn -0.708890 0.693424 0.128990
vn -0.634761 0.682073 0.363118
vn -0.630290 0.681425 0.372015
vn -0.491291 0.663453 0.564326
vn -0.483040 0.662518 0.572488
vn -0.292708 0.645208 0.705711
vn -0.285041 0.644682 0.709321
vn -0.060423 0.635334 0.769870
vn -0.058350 0.635302 0.770056
vn 0.179027 0.638335 0.748651
vn 0.174162 0.638140 0.749963
vn 0.397983 0.652716 0.644649
vn 0.389658 0.651968 0.650465
vn 0.571840 0.671835 0.470783
vn 0.565314 0.670996 0.479776
vn 0.682649 0.687454 0.247786
vn 0.680452 0.687118 0.254663
vn 0.720558 0.693394 -0.000000
vn 0.720558 0.693394 -0.000000
vn 0.204245 -0.965926 -0.158970
vn 0.244795 -0.965926 -0.084039
vn -0.000000 -1.000000 0.000000
vn 0.141561 -0.965926 -0.216675
vn 0.063536 -0.965926 -0.250899
vn -0.021373 -0.965926 -0.257935
vn -0.103967 -0.965926 -0.237020
vn -0.175293 -0.965926 -0.190420
vn -0.227625 -0.965926 -0.123184
vn -0.255289 -0.965926 -0.042600
vn -0.255289 -0.965926 0.042600
vn -0.227625 -0.965926 0.123185
vn -0.175293 -0.965926 0.190420
vn -0.103966 -0.965926 0.237020
vn -0.021373 -0.965926 0.257935
vn 0.063536 -0.965926 0.250899
vn 0.141561 -0.965926 0.216675
vn 0.204245 -0.965926 0.158970
vn 0.244796 -0.965926 0.084039
vn 0.258819 -0.965926 0.000000
vn 0.772022 0.577370 -0.265755
vn 0.643841 0.577045 -0.502481
vn -0.000000 1.000000 -0.000001
vn 0.445997 0.576659 -0.684508
vn 0.200096 0.576373 -0.792310
vn -0.067305 0.576310 -0.814455
vn -0.327479 0.576495 -0.748606
vn -0.552424 0.576850 -0.601724
vn -0.717722 0.577225 -0.389469
vn -0.805221 0.577465 -0.134735
vn -0.805221 0.577465 0.134735
vn -0.717721 0.577227 0.389469
vn -0.552426 0.576850 0.601723
vn -0.327479 0.576495 0.748605
vn -0.067305 0.576311 0.814454
vn 0.200095 0.576375 0.792309
vn 0.445997 0.576660 0.684507
vn 0.643841 0.577046 0.502481
vn 0.772023 0.577370 0.265753
vn 0.816394 0.577496 -0.000001
s 1
g pSphere1
usemtl initialShadingGroup
f 1/1/1 2/2/2 21/22/3 20/21/4
f 2/2/2 3/3/5 22/23/6 21/22/3
f 3/3/5 4/4/7 23/24/8 22/23/6
f 4/4/7 5/5/9 24/25/10 23/24/8
f 5/5/9 6/6/11 25/26/12 24/25/10
f 6/6/11 7/7/13 26/27/14 25/26/12
f 7/7/13 8/8/15 27/28/16 26/27/14
f 8/8/15 9/9/17 28/29/18 27/28/16
f 9/9/17 10/10/19 29/30/20 28/29/18
f 10/10/19 11/11/21 30/31/22 29/30/20
f 11/11/21 12/12/23 31/32/24 30/31/22
f 12/12/23 13/13/25 32/33/26 31/32/24
f 13/13/25 14/14/27 33/34/28 32/33/26
f 14/14/27 15/15/29 34/35/30 33/34/28
f 15/15/29 16/16/31 35/36/32 34/35/30
f 16/16/31 17/17/33 36/37/34 35/36/32
f 17/17/33 18/18/35 37/38/36 36/37/34
f 18/18/35 19/19/37 38/39/38 37/38/36
f 19/19/37 1/20/1 20/40/4 38/39/38
s 2
f 20/21/39 21/22/40 40/42/41 39/41/42
f 21/22/40 22/23/43 41/43/44 40/42/41
f 22/23/43 23/24/45 42/44/46 41/43/44
f 23/24/45 24/25/47 43/45/48 42/44/46
f 24/25/47 25/26/49 44/46/50 43/45/48
f 25/26/49 26/27/51 45/47/52 44/46/50
f 26/27/51 27/28/53 46/48/54 45/47/52
f 27/28/53 28/29/55 47/49/56 46/48/54
f 28/29/55 29/30/57 48/50/58 47/49/56
f 29/30/57 30/31/59 49/51/60 48/50/58
f 30/31/59 31/32/61 50/52/62 49/51/60
f 31/32/61 32/33/63 51/53/64 50/52/62
f 32/33/63 33/34/65 52/54/66 51/53/64
f 33/34/65 34/35/67 53/55/68 52/54/66
f 34/35/67 35/36/69 54/56/70 53/55/68
f 35/36/69 36/37/71 55/57/72 54/56/70
f 36/37/71 37/38/73 56/58/74 55/57/72
f 37/38/73 38/39/75 57/59/76 56/58/74
f 38/39/75 20/40/39 39/60/42 57/59/76
s 3
f 39/41/77 40/42/78 59/62/79 58/61/80
f 40/42/78 41/43/81 60/63/82 59/62/79
f 41/43/81 42/44/83 61/64/84 60/63/82
f 42/44/83 43/45/85 62/65/86 61/64/84
f 43/45/85 44/46/87 63/66/88 62/65/86
f 44/46/87 45/47/89 64/67/90 63/66/88
f 45/47/89 46/48/91 65/68/92 64/67/90
f 46/48/91 47/49/93 66/69/94 65/68/92
f 47/49/93 48/50/95 67/70/96 66/69/94
f 48/50/95 49/51/97 68/71/98 67/70/96
f 49/51/97 50/52/99 69/72/100 68/71/98
f 50/52/99 51/53/101 70/73/102 69/72/100
f 51/53/101 52/54/103 71/74/104 70/73/102
f 52/54/103 53/55/105 72/75/106 71/74/104
f 53/55/105 54/56/107 73/76/108 72/75/106
f 54/56/107 55/57/109 74/77/110 73/76/108
f 55/57/109 56/58/111 75/78/112 74/77/110
f 56/58/111 57/59/113 76/79/114 75/78/112
f 57/59/113 39/60/77 58/80/80 76/79/114
s 4
f 58/61/115 59/62/116 78/82/117 77/81/118
f 59/62/116 60/63/119 79/83/120 78/82/117
f 60/63/119 61/64/121 80/84/122 79/83/120
f 61/64/121 62/65/123 81/85/124 80/84/122
f 62/65/123 63/66/125 82/86/126 81/85/124
f 63/66/125 64/67/127 83/87/128 82/86/126
f 64/67/127 65/68/129 84/88/130 83/87/128
f 65/68/129 66/69/131 85/89/132 84/88/130
f 66/69/131 67/70/133 86/90/134 85/89/132
f 67/70/133 68/71/135 87/91/136 86/90/134
f 68/71/135 69/72/137 88/92/138 87/91/136
f 69/72/137 70/73/139 89/93/140 88/92/138
f 70/73/139 71/74/141 90/94/142 89/93/140
f 71/74/141 72/75/143 91/95/144 90/94/142
f 72/75/143 73/76/145 92/96/146 91/95/144
f 73/76/145 74/77/147 93/97/148 92/96/146
f 74/77/147 75/78/149 94/98/150 93/97/148
f 75/78/149 76/79/151 95/99/152 94/98/150
f 76/79/151 58/80/115 77/100/118 95/99/152
s 5
f 2/2/153 1/1/154 96/101/155
f 3/3/156 2/2/153 96/102/155
f 4/4/157 3/3/156 96/103/155
f 5/5/158 4/4/157 96/104/155
f 6/6/159 5/5/158 96/105/155
f 7/7/160 6/6/159 96/106/155
f 8/8/161 7/7/160 96/107/155
f 9/9/162 8/8/161 96/108/155
f 10/10/163 9/9/162 96/109/155
f 11/11/164 10/10/163 96/110/155
f 12/12/165 11/11/164 96/111/155
f 13/13/166 12/12/165 96/112/155
f 14/14/167 13/13/166 96/113/155
f 15/15/168 14/14/167 96/114/155
f 16/16/169 15/15/168 96/115/155
f 17/17/170 16/16/169 96/116/155
f 18/18/171 17/17/170 96/117/155
f 19/19/172 18/18/171 96/118/155
f 1/20/154 19/19/172 96/119/155
s 6
f 77/81/173 78/82/174 97/120/175
f 78/82/174 79/83/176 97/121/175
f 79/83/176 80/84/177 97/122/175
f 80/84/177 81/85/178 97/123/175
f 81/85/178 82/86/179 97/124/175
f 82/86/179 83/87/180 97/125/175
f 83/87/180 84/88/181 97/126/175
f 84/88/181 85/89/182 97/127/175
f 85/89/182 86/90/183 97/128/175
f 86/90/183 87/91/184 97/129/175
f 87/91/184 88/92/185 97/130/175
f 88/92/185 89/93/186 97/131/175
f 89/93/186 90/94/187 97/132/175
f 90/94/187 91/95/188 97/133/175
f 91/95/188 92/96/189 97/134/175
f 92/96/189 93/97/190 97/135/175
f 93/97/190 94/98/191 97/136/175
f 94/98/191 95/99/192 97/137/175
f 95/99/192 77/100/173 97/138/175
